<?xml version="1.0" encoding="UTF-8" standalone="no"?>
<svg xmlns:ffdec="https://www.free-decompiler.com/flash" xmlns:xlink="http://www.w3.org/1999/xlink" ffdec:objectType="shape" height="102.0px" width="919.3px" xmlns="http://www.w3.org/2000/svg">
  <g transform="matrix(1.0, 0.0, 0.0, 1.0, 0.0, 0.0)">
    <path d="M894.7 86.7 L894.7 88.2 897.1 88.2 897.1 89.1 901.3 89.1 901.3 90.2 906.8 90.2 906.8 90.95 919.3 90.95 919.3 97.6 915.45 97.6 915.45 100.25 912.2 100.25 912.2 102.0 799.7 102.0 799.7 101.95 168.0 101.95 168.0 102.0 8.1 102.0 8.1 99.95 5.75 99.95 5.75 98.0 2.75 98.0 2.75 96.85 0.0 96.85 0.0 90.7 16.25 90.7 16.25 89.5 18.75 89.5 18.75 87.95 24.25 87.95 24.25 87.35 28.75 87.35 28.75 85.85 31.35 85.85 31.35 84.45 33.6 84.45 33.6 83.0 35.5 83.0 35.5 81.0 39.5 81.0 39.5 79.45 42.1 79.45 42.1 78.5 56.5 78.5 56.5 75.7 59.85 75.7 59.85 73.35 63.45 73.35 63.45 63.25 65.0 63.25 65.0 60.7 67.0 60.7 67.0 58.75 69.75 58.75 69.75 57.95 87.6 57.95 87.6 59.45 91.1 59.45 91.1 59.6 91.35 59.6 91.35 61.2 93.75 61.2 93.75 64.0 96.45 64.0 96.45 72.35 97.85 72.35 97.85 64.0 101.25 64.0 101.25 59.85 103.95 59.85 103.95 58.85 106.2 58.85 106.2 56.75 119.85 56.75 119.85 60.2 125.45 60.2 125.45 64.85 130.95 64.85 130.95 66.7 133.7 66.7 133.7 62.0 135.75 62.0 135.75 56.75 138.0 56.75 138.0 52.0 139.5 52.0 139.5 46.25 145.75 46.25 145.75 36.25 153.0 36.25 153.0 30.5 157.75 30.5 157.75 24.25 162.75 24.25 162.75 18.0 169.75 18.0 169.75 10.0 176.25 10.0 176.25 0.0 219.25 0.0 219.25 4.75 229.5 4.75 229.5 12.0 238.75 12.0 238.75 19.0 255.5 19.0 255.5 19.5 361.25 19.5 361.25 24.25 374.5 24.25 374.5 31.25 379.5 31.25 379.5 37.5 384.75 37.5 384.75 38.0 534.2 38.0 534.2 37.5 545.25 37.5 545.25 27.75 546.45 27.75 546.45 25.0 555.5 25.0 555.5 20.25 654.7 20.25 654.7 15.75 670.7 15.75 670.7 12.75 678.7 12.75 678.7 5.75 685.2 5.75 685.2 3.0 691.45 3.0 691.45 0.5 731.45 0.5 731.45 1.75 739.45 1.75 739.45 5.75 742.95 5.75 742.95 11.5 747.95 11.5 747.95 18.25 750.7 18.25 750.7 26.25 757.2 26.25 757.2 34.25 773.45 34.25 773.45 49.5 785.55 49.5 785.55 55.5 787.7 55.5 787.7 63.5 789.7 63.5 789.7 67.95 791.8 67.95 791.8 63.5 794.05 63.5 794.05 59.75 797.05 59.75 797.05 57.6 799.7 57.6 799.7 55.7 818.2 55.7 818.2 58.0 820.2 58.0 820.2 59.85 822.3 59.85 822.3 61.25 823.3 61.25 823.3 64.35 825.2 64.35 825.2 68.1 826.55 68.1 826.55 64.35 827.3 64.35 827.3 63.5 828.7 63.5 828.7 61.25 830.3 61.25 830.3 59.75 832.7 59.75 832.7 58.0 835.95 58.0 835.95 55.7 853.45 55.7 853.45 57.95 856.45 57.95 856.45 61.1 859.1 61.1 859.1 65.35 861.2 65.35 861.2 75.85 863.6 75.85 863.6 78.95 878.7 78.95 878.7 79.45 882.2 79.45 882.2 82.35 887.4 82.35 887.4 83.85 888.95 83.85 888.95 85.35 890.95 85.35 890.95 86.7 894.7 86.7" fill="#ff0000" fill-opacity="0.0" fill-rule="evenodd" stroke="none"/>
  </g>
</svg>
