<?xml version="1.0" encoding="UTF-8" standalone="no"?>
<svg xmlns:ffdec="https://www.free-decompiler.com/flash" xmlns:xlink="http://www.w3.org/1999/xlink" ffdec:objectType="shape" height="20.0px" width="128.0px" xmlns="http://www.w3.org/2000/svg">
  <g transform="matrix(1.0, 0.0, 0.0, 1.0, 0.0, 0.0)">
    <path d="M127.0 19.0 L127.0 1.0 1.0 1.0 1.0 19.0 127.0 19.0 M128.0 20.0 L0.0 20.0 0.0 0.0 128.0 0.0 128.0 20.0" fill="#727272" fill-rule="evenodd" stroke="none"/>
    <path d="M126.0 18.0 L126.0 2.0 2.0 2.0 2.0 18.0 126.0 18.0 M127.0 19.0 L1.0 19.0 1.0 1.0 127.0 1.0 127.0 19.0" fill="#e6e6e6" fill-rule="evenodd" stroke="none"/>
    <path d="M126.0 18.0 L2.0 18.0 2.0 2.0 126.0 2.0 126.0 18.0" fill="url(#gradient0)" fill-rule="evenodd" stroke="none"/>
  </g>
  <defs>
    <linearGradient gradientTransform="matrix(0.0, 0.0098, -0.0098, 0.0, 64.0, 10.0)" gradientUnits="userSpaceOnUse" id="gradient0" spreadMethod="pad" x1="-819.2" x2="819.2">
      <stop offset="0.0" stop-color="#d9d9d9"/>
      <stop offset="1.0" stop-color="#c0c0c0"/>
    </linearGradient>
  </defs>
</svg>
